<svg width="525" height="626" viewBox="0 0 525 626" fill="none" xmlns="http://www.w3.org/2000/svg">
<path d="M342.3 474.701C336.656 472.06 332.267 468.539 326.498 468.413C326.122 468.413 325.495 468.287 325.244 467.91C321.482 464.137 316.842 462.502 311.575 461.999C311.951 458.855 314.71 457.849 316.09 455.837C314.585 454.579 313.707 452.442 311.324 452.19C310.948 452.19 310.446 451.687 310.195 451.435C307.436 446.908 304.176 442.632 303.047 437.476C302.295 434.206 303.047 430.685 302.922 427.164C302.796 423.894 299.912 421.002 301.417 417.606C300.915 414.211 296.401 412.953 297.028 409.306C294.018 403.898 288.751 401.006 283.735 398.868C277.966 396.227 271.445 394.718 264.798 397.736C257.148 401.257 249.248 404.527 242.601 409.683C239.466 412.073 236.331 414.336 232.443 415.468C229.684 416.349 228.681 419.115 226.298 420.499C233.196 427.164 239.466 433.955 244.733 441.878C244.859 442.129 245.109 442.255 245.235 442.381C251.63 447.663 255.643 455.082 261.788 460.49C260.911 464.011 263.67 465.269 265.3 466.904C268.435 465.52 268.56 460.616 271.194 460.113C274.58 459.484 272.95 453.825 277.464 455.586C277.84 461.119 279.095 466.904 279.596 472.815C280.349 481.743 280.85 490.924 285.114 499.098C285.239 499.476 284.989 499.979 284.863 500.607C282.481 501.739 280.85 499.35 279.471 498.469C274.58 495.2 268.937 494.194 263.795 491.804C256.898 488.534 250 489.289 242.727 488.66C245.486 487.403 247.994 485.39 248.997 483.001C250.251 480.234 253.888 480.36 254.264 476.587C252.634 474.952 250.753 473.192 248.997 471.18C247.241 469.293 246.113 466.778 244.106 465.52C241.723 464.137 239.341 462.251 238.463 460.239C237.334 457.472 235.077 456.214 233.446 454.202C231.691 452.19 229.684 450.304 227.803 448.543C227.803 447.537 227.803 446.531 227.803 445.525C223.665 441.375 219.526 437.225 215.262 432.949C210.999 433.703 208.491 436.973 205.606 439.74C203.85 441.375 204.227 445.147 200.464 444.896C199.712 447.663 197.204 448.92 195.824 451.058C192.188 456.592 187.673 461.873 188.049 469.167C188.175 470.677 187.046 471.305 186.544 472.186C186.168 474.072 188.175 474.827 188.175 476.839C188.049 485.39 191.059 492.307 199.085 496.583C201.217 497.715 202.596 499.979 204.603 501.991C206.986 502.494 209.87 502.997 211.876 504.883C217.018 510.165 225.295 512.177 228.43 519.848C230.813 517.711 233.823 516.453 235.955 512.554C237.585 522.867 238.964 531.544 240.469 540.473C239.466 541.228 236.958 541.228 236.205 540.473C232.945 537.078 227.176 539.09 224.292 534.688C222.285 534.688 220.153 534.688 218.021 534.688C218.774 532.047 219.652 529.658 222.034 528.4C222.034 526.765 222.034 525.382 222.034 523.747C217.771 519.094 213.256 514.567 207.738 511.171C204.101 511.926 201.719 509.033 198.709 508.279C195.824 507.524 193.065 506.518 190.307 505.386C185.541 503.374 184.162 501.739 180.65 498.595C177.013 495.2 176.136 490.295 172.123 486.9C173.502 483.001 170.241 479.48 170.743 475.455C166.981 470.174 170.367 465.52 172.373 461.119C173.878 457.849 176.01 454.454 179.02 452.064C181.904 449.801 184.036 446.782 186.795 444.393C191.435 440.494 193.567 434.835 197.204 430.182C200.715 425.655 200.214 420.373 200.088 414.588C197.078 412.324 194.947 408.803 193.316 404.024C189.429 409.055 188.175 413.959 188.3 418.738C185.416 423.768 184.412 428.673 183.911 432.446C182.28 434.835 181.152 436.47 180.399 437.35C178.644 437.853 178.017 437.225 177.766 436.596C176.637 433.578 174.129 431.691 172.123 429.428C172.373 425.529 170.492 422.259 169.364 418.738C168.36 415.468 170.241 411.57 167.733 408.3C169.238 405.282 170.618 402.138 167.232 399.371C165.225 402.767 161.212 404.15 159.331 408.048C157.575 411.57 153.186 413.582 151.807 417.48C150.427 421.505 145.662 423.391 145.662 428.044C144.031 428.799 142.652 429.428 140.645 430.434C139.642 429.05 138.514 427.415 137.385 425.906C139.642 423.768 137.886 420.373 138.137 417.355C138.388 414.211 138.263 410.941 138.263 407.797C138.263 404.653 138.263 401.509 138.263 398.365C139.266 397.359 140.144 396.479 141.022 395.598C141.022 393.46 141.022 391.323 141.022 389.059C131.992 390.191 124.092 394.592 114.561 397.107C114.561 397.107 113.683 397.988 112.68 398.994C110.172 398.994 107.538 398.994 105.281 398.994C104.403 398.239 103.65 397.61 102.647 396.73C107.413 387.675 113.432 379.753 120.079 372.207C126.851 364.536 135.755 360.26 143.781 355.104C143.279 350.954 138.89 351.205 137.636 347.936C136.632 345.546 134.25 343.408 131.867 341.522C128.105 338.629 125.095 334.857 122.336 330.832C116.944 322.909 110.673 315.615 103.776 309.076C102.522 308.196 103.4 306.812 102.773 305.052C92.9908 296.752 85.968 285.056 76.4371 275.372C69.6652 268.456 63.8964 260.281 58.5039 251.981C57.5007 250.472 55.6196 249.466 54.4909 248.46C54.4909 246.699 54.4909 245.693 54.4909 244.687C48.0952 239.783 43.3297 233.243 38.5643 226.955C32.6701 219.284 26.0236 212.367 20.8819 204.193C20.2549 203.187 19.1262 203.438 18.75 202.935C15.8656 199.791 12.1034 197.527 10.2223 193.252C8.96825 190.485 6.71093 188.347 4.57901 185.958C2.69791 183.945 1.69466 181.807 1.69466 179.041C1.69466 177.406 2.07088 175.771 0.565995 174.262C-0.311853 173.382 -0.186446 171.621 1.06762 170.363C2.5725 168.98 1.44384 167.094 1.82006 165.459C4.07739 162.692 6.58552 160.303 10.5985 158.668C11.351 158.668 12.8559 158.668 14.2353 158.668C14.9878 161.686 17.6213 163.195 19.5024 165.459C19.5024 166.339 19.1262 167.848 19.6278 168.225C22.5122 170.489 23.7663 174.01 26.2744 176.526C29.4096 179.67 32.921 182.436 34.3004 187.215C34.8021 189.102 37.0594 190.485 38.6897 191.994C46.9665 199.288 53.3623 208.217 59.2564 217.397C62.2661 222.05 65.5267 226.201 69.2889 230.225C71.9225 232.866 72.8003 236.639 75.4339 239.531C77.315 241.543 78.569 244.436 80.8264 245.945C83.3345 247.454 82.9583 251.352 86.3443 251.73C86.5951 251.73 86.8459 252.484 86.9713 252.862C88.8524 259.401 93.7433 263.551 98.6341 268.33C98.6341 269.21 98.7595 270.342 98.8849 271.725C104.779 275.875 107.914 282.792 113.432 287.445C113.432 288.451 113.432 289.457 113.432 290.589C115.564 292.727 117.947 294.865 120.079 297.255C121.834 299.141 122.838 301.656 124.719 303.165C130.487 307.944 134.751 313.855 138.639 320.143C142.025 320.772 142.527 324.419 144.658 326.431C146.54 328.317 147.919 330.958 150.051 332.97C152.308 335.108 154.566 337.498 157.074 339.887C161.839 332.97 167.984 327.059 171.495 319.262C172.373 317.125 173.377 314.987 174.631 313.226C176.136 311.34 178.017 309.705 179.772 307.944C179.772 306.938 179.772 305.932 179.772 304.926C184.914 299.896 189.93 294.865 193.316 288.451C193.818 287.445 194.821 286.313 195.95 285.936C199.21 284.553 201.217 282.289 202.722 279.271C203.349 278.013 204.603 276.882 205.857 276.504C207.111 276.001 209.118 276.756 209.619 275.121C210.497 272.48 213.381 271.6 214.259 269.084C215.262 269.084 216.266 269.084 217.144 269.084C218.272 265.312 221.533 263.928 224.292 261.79C226.925 259.778 230.06 257.64 231.064 254.371C232.443 249.969 238.212 252.61 238.964 248.208C245.109 249.592 250.502 245.442 256.271 247.077C258.152 247.58 259.656 249.466 262.039 249.089C264.297 248.711 265.927 251.352 267.933 251.227C271.821 250.849 274.58 253.113 277.59 254.622C280.599 256.131 284.487 256.005 286.744 259.149C286.995 259.527 287.497 260.156 287.748 260.156C293.015 259.401 296.275 264.683 301.417 264.557C302.922 264.557 303.549 265.689 304.301 266.444C305.43 267.701 307.687 268.833 308.44 268.707C313.08 268.33 316.215 271.725 319.852 273.234C327.627 276.504 335.528 279.397 342.676 283.673C344.682 284.93 347.567 284.176 348.946 286.188C350.576 288.451 353.335 287.194 354.715 288.2C359.857 292.224 366.503 293.608 371.896 298.386C378.417 296.752 384.311 302.536 391.334 301.405C396.852 304.8 403.498 305.052 409.518 307.19C415.663 309.453 421.181 313.477 427.702 314.987C430.084 319.765 431.84 324.796 434.599 329.7C437.107 334.228 439.866 338.755 441.371 343.911C485.89 343.911 530.159 343.911 573.926 343.911C579.946 340.767 584.209 336.114 588.222 331.461C591.232 327.94 594.994 325.047 598.004 321.652C602.895 316.244 608.162 310.962 612.175 304.674C612.426 304.297 612.928 304.046 613.178 303.668C613.805 302.662 614.809 302.914 615.687 302.662C620.201 301.53 623.211 297.506 627.976 296.877C631.739 296.374 635.501 295.117 638.636 292.979C648.292 290.967 658.325 291.595 667.73 288.074C672.12 288.829 675.882 285.936 680.396 286.439C684.786 286.942 689.175 286.565 693.564 286.565C697.953 286.565 701.841 285.433 705.352 282.038C710.996 283.673 715.636 278.265 721.279 279.271C722.282 278.265 723.16 277.385 724.038 276.504C724.54 276.378 724.916 276.253 725.417 276.253C730.058 276.63 733.945 274.492 737.958 272.857C739.463 272.228 740.717 270.594 742.097 270.468C744.856 270.342 746.862 269.462 749.245 267.953C751 266.695 753.759 266.066 756.017 265.06C758.901 263.803 761.785 262.168 764.921 261.665C767.68 261.162 770.188 261.162 771.066 258.646C772.57 258.395 773.198 258.772 774.075 259.778C780.847 254.999 788.623 255.125 796.022 255.628C800.16 258.018 803.797 260.533 807.684 262.293C809.691 263.3 811.196 264.557 812.701 266.066C815.334 268.707 817.842 271.851 822.106 271.725C826.245 275.875 832.891 276.378 836.528 281.157C837.782 282.666 839.412 283.421 841.043 284.301C842.171 284.93 843.551 285.182 844.679 286.313C846.937 288.577 847.438 292.476 851.326 293.104C852.455 296.123 855.966 296.877 857.345 299.267C859.728 303.291 863.114 306.309 866.249 309.579C869.635 313.1 873.523 315.867 876.533 319.765C879.793 323.79 883.681 327.185 887.318 330.832C891.581 334.982 895.469 339.384 898.228 344.666C899.357 346.804 901.865 346.678 903.37 348.313C904.875 349.948 906.254 351.708 908.135 352.714C911.521 354.727 913.904 357.242 916.036 360.637C918.418 364.41 922.306 367.051 924.689 371.075C926.946 375.1 929.956 378.621 930.583 383.4C930.708 384.531 931.21 385.035 931.837 385.789C935.348 390.191 936.979 395.221 936.352 401.258C930.207 401.635 925.316 399.371 921.805 394.089C920.174 391.574 920.3 391.448 916.161 389.31C916.412 395.221 914.531 400.88 917.164 406.414C917.541 407.168 917.666 408.426 917.415 409.18C915.66 413.079 916.914 417.355 915.66 421.002C914.782 423.643 914.907 426.158 914.406 428.547C913.653 432.446 913.402 436.093 909.013 438.859C903.244 442.507 898.981 448.417 895.344 454.328C894.591 455.585 893.964 456.969 892.459 457.095C891.331 457.346 890.327 457.975 890.202 458.604C888.948 463.257 884.308 464.766 881.674 468.161C879.166 471.431 876.533 475.33 872.018 476.587C871.516 480.737 866.876 481.869 865.622 485.768C864.494 489.289 859.728 489.54 857.596 492.684C854.586 491.301 851.451 490.547 850.323 486.774C849.696 484.51 845.683 485.39 845.056 482.121C845.557 480.109 848.441 479.228 848.818 477.468C849.445 474.827 851.702 474.701 853.082 473.443C856.217 471.054 858.223 467.533 860.982 464.892C862.863 463.005 865.622 461.999 867.002 459.61C870.513 453.448 876.658 450.052 881.424 445.147C885.813 440.746 891.331 437.35 893.713 431.188C899.231 429.805 899.482 423.643 903.871 421.127C902.993 420.247 902.492 419.744 901.99 419.241C901.614 418.738 901.363 418.99 900.987 419.493C899.357 421.253 897.476 424.397 895.845 424.397C892.836 424.271 894.34 428.924 891.331 427.793C891.08 427.667 890.453 428.421 890.327 428.799C889.575 430.937 887.067 431.691 886.314 433.578C884.935 436.596 881.925 437.979 880.044 440.746C879.166 440.746 878.288 440.872 876.909 440.997C874.777 445.399 870.012 448.04 868.005 452.819C865.497 452.316 863.616 450.052 861.233 451.813C860.982 454.202 862.863 454.831 863.992 456.34C862.111 459.107 859.101 460.867 856.844 463.131C854.712 465.269 851.075 466.149 850.573 470.299C849.445 470.425 848.316 470.425 847.187 470.551C846.435 473.192 844.679 474.952 842.547 476.336C841.67 476.336 840.416 476.587 840.165 476.336C838.284 473.192 833.894 474.198 831.888 471.305C830.759 469.671 829.63 467.784 828.627 466.149C830.634 463.131 831.386 459.232 835.65 458.604C838.284 452.693 845.808 451.184 848.191 444.77C848.943 442.884 850.95 441.249 852.831 440.117C858.349 436.596 862.863 432.194 866.249 426.661C867.127 425.277 868.256 423.894 870.011 423.391C872.77 422.511 873.899 419.87 876.031 418.361C875.906 416.6 876.533 414.839 875.529 413.205C874.902 413.33 874.025 413.079 873.648 413.456C872.269 414.839 870.262 415.468 869.259 416.726C868.381 417.858 867.629 419.493 866.5 420.624C859.979 427.29 852.58 432.949 845.306 438.985C845.306 439.74 845.306 440.746 845.306 442.255C840.541 441.626 841.419 447.034 838.033 448.794C835.274 450.178 834.02 453.951 830.634 455.46C829.254 456.089 828.627 458.478 827.499 460.113C825.367 460.113 823.235 460.113 820.852 460.113C818.971 458.226 816.964 456.214 814.582 453.825C814.331 450.304 814.08 446.782 818.72 445.022C821.354 444.016 821.228 439.991 824.363 439.363C826.495 434.961 830.885 432.572 833.769 428.673C836.779 424.523 840.917 421.253 844.554 417.606C848.191 413.959 851.828 410.312 855.464 406.665C859.101 403.018 862.738 399.371 866.375 395.724C867.629 395.598 868.381 397.736 870.513 396.227C868.883 392.58 868.757 388.053 865.246 385.16C863.24 384.783 862.738 386.544 861.609 387.298C861.609 388.807 861.609 390.191 861.609 391.7C860.731 392.58 859.854 393.46 858.85 394.466C858.725 395.976 858.725 397.61 858.6 399.245C855.59 399.748 855.841 403.27 852.705 404.401C848.191 405.408 848.943 399.497 845.557 397.988C845.557 395.85 845.181 393.586 845.683 391.574C846.184 389.31 844.178 388.179 844.178 386.292C844.052 384.028 844.303 381.891 844.178 379.627C844.052 377.741 844.93 375.603 842.924 374.219C845.432 372.333 843.3 370.698 842.798 368.812C842.297 366.925 842.673 364.913 842.673 362.901C842.673 360.637 842.798 358.499 842.673 356.236C842.547 354.224 844.679 353.217 844.303 350.954C843.927 348.816 844.178 346.552 844.178 344.414C840.917 343.157 840.165 339.384 837.28 337.875C834.521 336.366 830.634 336.994 828.878 333.347C828.251 333.976 827.749 334.479 827.248 334.857C826.119 333.85 825.241 332.341 823.987 332.09C814.832 329.7 807.559 324.544 801.539 318.005C800.16 316.747 798.906 317.502 797.777 317.25C795.896 315.364 794.015 313.478 792.008 311.465C785.989 310.334 780.346 313.855 774.326 312.849C770.438 315.615 765.548 316.621 761.66 319.514C758.023 322.155 754.01 324.419 749.746 326.305C745.608 328.191 742.222 331.335 737.457 332.216C735.701 332.593 733.444 333.599 732.064 334.982C729.054 337.749 725.167 338.629 721.906 340.642C718.646 342.654 715.009 344.163 711.497 345.546C707.861 347.055 704.098 349.193 700.712 351.457C695.947 354.601 690.805 357.368 685.664 359.757C682.278 361.392 679.769 363.53 677.01 366.045C674.126 364.787 672.997 367.68 670.991 368.812C664.971 372.459 658.701 375.728 652.556 379.124C645.784 382.897 639.263 387.424 632.616 391.323C629.983 392.832 627.099 393.46 624.967 395.976C623.086 398.113 619.95 399.371 617.317 400.503C611.674 403.018 612.05 408.174 610.545 412.45C609.542 415.091 611.548 418.235 609.291 420.75C611.046 423.014 610.545 425.655 610.419 428.17C610.294 430.434 613.053 431.817 612.05 433.955C618.822 443.89 628.102 451.561 634.874 461.496C638.26 466.527 643.527 470.174 647.665 474.701C651.427 478.599 656.318 481.618 657.572 487.528C662.087 490.924 664.344 496.206 668.483 499.979C670.113 501.488 672.997 501.362 673.875 504.254C674.377 506.392 675.756 508.404 677.01 510.794C674.753 513.686 675.38 517.333 675.255 520.855C672.997 524.627 669.737 527.394 666.476 529.783C666.476 531.544 666.476 532.676 666.476 533.43C664.219 535.694 662.087 537.832 660.582 539.341C660.582 542.359 660.582 544.372 660.582 547.013C659.203 548.019 657.572 549.402 656.068 550.66C656.695 555.69 653.309 558.708 651.051 561.475C645.91 567.637 644.279 575.686 638.761 581.471C638.26 587.381 633.996 591.28 631.112 596.059C628.227 600.838 625.092 605.491 621.079 609.641C620.703 610.018 620.703 610.898 620.577 611.653C617.944 612.156 615.31 615.929 612.05 610.898C612.05 609.515 612.05 607.125 612.05 604.736C612.05 602.472 612.928 599.706 611.799 598.322C610.419 596.562 613.053 593.669 609.542 593.166C609.291 593.921 608.915 594.801 608.538 595.933C604.651 595.556 601.641 597.191 598.506 599.706C594.744 602.85 593.615 602.598 589.978 599.831C588.975 595.178 591.734 591.783 593.991 588.387C596.876 583.86 597.126 583.734 597.628 578.704C598.255 578.578 598.882 578.452 600.136 578.201C599.76 575.183 600.512 572.416 603.02 570.152C603.522 569.649 604.651 568.14 604.525 567.26C604.149 561.601 607.661 557.576 610.545 553.552C612.928 550.282 613.178 546.006 615.687 543.24C618.571 540.096 618.195 535.82 619.825 532.927C618.069 531.167 616.439 529.406 614.056 527.017C607.159 525.508 601.39 519.345 594.242 515.698C587.345 512.177 579.444 511.045 572.547 506.267C566.151 506.77 559.755 504.506 552.858 501.991C550.851 503.626 547.841 503.751 544.706 503.123C543.954 502.368 543.327 501.739 542.323 500.733C541.069 499.727 540.819 502.997 539.063 501.991C538.185 501.488 536.68 501.991 535.426 501.865C522.635 500.733 509.843 503.877 497.052 503.374C496.55 503.374 495.923 503.123 495.672 503.374C493.164 505.763 489.653 503.877 487.019 505.512C486.141 506.141 485.389 506.392 484.386 506.267C475.983 505.638 468.835 510.291 461.06 512.177C459.555 514.944 456.294 512.303 454.664 514.315C453.034 516.201 451.278 516.83 448.895 516.579C447.767 516.453 447.14 517.333 446.513 517.962C445.635 518.842 444.255 519.094 443.628 519.723C440.869 521.986 436.856 521.358 434.348 524.25C432.091 526.891 428.83 528.4 425.695 530.035C423.187 531.293 423.689 534.94 421.055 535.946C419.174 541.982 424.441 546.006 425.444 551.666C430.586 553.929 429.583 560.972 433.847 564.619C433.47 564.996 432.969 565.499 432.592 566.128C435.978 569.398 439.239 572.793 440.242 578.704C441.246 579.584 443.001 580.968 444.506 582.099C443.127 587.13 450.149 587.884 448.77 592.537C452.908 593.669 452.532 598.448 455.291 600.838C458.05 603.227 456.921 608.257 460.934 610.521C459.806 612.659 458.803 614.671 457.799 616.432C455.417 617.563 453.912 617.186 452.407 615.551C449.272 612.03 444.381 610.521 442.249 606.748C439.866 606.874 439.615 608.006 439.992 608.76C441.496 612.156 441.747 615.677 441.246 619.198C440.995 621.085 443.127 621.462 442.876 623.097C441.998 625.486 440.242 626.367 437.734 625.864C430.837 619.701 425.946 611.779 419.049 605.616C416.29 603.101 415.663 598.7 411.9 596.939C412.527 594.172 409.768 594.927 408.64 594.047C404.752 590.525 402.119 585.746 398.607 581.974C393.716 576.692 390.581 569.649 383.809 566.128C374.529 556.319 363.87 547.893 356.721 536.071C355.467 533.934 356.094 530.664 353.335 529.783C350.953 519.974 356.972 513.058 360.609 505.386C365.5 503.123 366.503 497.338 370.265 493.942C374.028 490.547 375.909 485.265 379.796 481.869C381.176 480.612 380.799 479.228 380.925 477.468C386.067 474.701 387.321 468.539 390.957 464.263C391.835 463.131 392.964 461.748 393.716 460.364C395.347 457.346 398.231 455.208 398.733 451.31C398.983 449.423 400.614 447.16 402.62 445.525C406.257 442.758 407.135 438.608 407.386 434.206C407.386 433.452 407.26 432.697 407.386 431.943C408.765 426.032 405.881 421.127 402.62 416.977C397.604 410.689 393.089 403.647 385.69 399.874C381.176 397.485 378.041 393.712 374.028 390.819C366.378 385.538 359.355 379.501 350.953 375.225C342.676 371.075 335.151 365.542 327.878 359.757C322.485 355.481 316.34 352.211 310.446 348.564C309.945 348.187 308.941 348.564 308.189 348.564C304.678 345.672 302.169 341.019 296.526 341.145C288.5 333.599 277.966 329.952 269.438 323.287C267.432 325.425 265.676 323.412 263.92 323.538C261.538 323.664 260.911 321.275 259.531 320.646C257.775 320.017 257.399 321.778 256.02 322.029C254.766 322.406 254.389 320.52 252.508 320.52C248.997 324.041 244.106 325.928 238.839 326.682C235.578 329.197 232.694 332.09 229.684 334.731C223.414 340.013 218.021 346.426 214.259 353.972C213.256 355.984 213.507 357.619 213.256 359.38C215.012 362.272 217.771 364.159 219.526 367.051C222.661 371.956 224.166 376.986 224.919 382.519C225.044 383.274 224.668 384.406 225.044 384.657C226.674 385.915 226.424 388.179 228.179 389.688C225.295 392.58 226.674 396.227 226.298 399.874C231.189 398.868 233.697 393.712 238.714 394.215C239.842 393.712 239.466 392.58 239.842 391.7C241.347 390.819 243.103 391.448 245.109 391.197C244.858 385.412 251.881 388.053 253.386 384.028C255.894 384.028 258.277 384.028 261.161 384.028C261.914 383.022 262.792 381.891 263.544 381.01C269.94 381.01 275.834 381.01 281.603 381.01C284.362 384.154 288.751 383.777 291.886 386.544C296.401 390.316 302.169 392.58 302.922 399.497C307.186 403.773 306.559 409.809 308.941 414.588C311.951 420.876 311.324 427.038 311.7 433.2C312.704 434.206 313.456 434.961 314.459 435.967C314.459 437.35 314.459 438.734 314.459 440.117C316.717 443.135 320.228 445.022 321.607 449.298C324.492 446.657 327 444.519 330.01 441.752C330.888 445.022 331.138 447.914 332.392 450.178C333.772 452.819 333.396 456.466 336.656 458.101C336.155 461.245 337.158 463.76 339.666 465.646C338.287 469.796 343.303 470.802 342.3 474.701Z" fill="#FF64A5"/>
<path d="M402.87 167.094C402.87 165.71 402.87 164.578 402.87 162.692C400.613 160.931 399.233 158.039 398.23 155.146C395.095 151.625 390.706 153.26 386.944 151.751C379.545 148.858 371.769 147.224 364.621 143.451C361.988 142.067 358.225 143.199 356.595 139.804C351.83 138.295 348.82 134.396 346.563 130.749C344.18 126.851 342.173 122.072 342.55 116.916C341.672 116.161 340.794 115.281 339.791 114.4C339.791 111.885 339.791 109.244 339.791 106.855C336.154 103.459 336.655 98.932 335.527 95.0335C335.025 93.1471 334.273 91.0092 333.646 89.1228C333.269 87.8652 332.266 86.8591 332.266 85.2243C332.266 82.9606 332.015 80.6969 331.012 78.4333C329.507 74.6605 331.012 70.3847 332.642 66.7376C333.646 64.7255 333.395 63.0906 333.646 61.2042C338.913 54.9163 344.681 49.0056 348.569 41.5858C348.945 40.7055 349.823 39.9509 350.576 39.5736C357.222 36.6812 359.354 30.1417 363.116 24.9855C365.875 21.3385 368.885 18.0688 373.023 15.3021C372.898 10.7747 376.911 9.01412 380.673 7.25349C382.304 7.12773 382.554 8.88836 383.683 9.26563C383.683 16.6854 383.432 24.1052 383.808 31.3993C383.934 34.2917 381.551 36.0524 382.053 38.9448C382.554 41.3343 382.303 43.8494 382.053 46.2389C381.927 47.6222 382.68 48.5025 383.808 49.5086C380.172 55.9223 382.68 62.0845 385.062 68.121C385.313 68.7498 385.815 69.3786 386.442 69.7559C391.834 73.7802 397.227 77.9302 402.87 81.703C404.877 83.0863 407.51 83.4636 410.018 83.8409C411.147 84.0924 411.523 84.9727 412.527 85.35C416.038 81.3257 419.048 76.6726 423.186 72.8998C425.694 70.6362 428.829 69.3786 431.087 66.7376C432.215 65.3543 431.965 63.5937 433.595 62.4618C434.974 61.5815 436.855 61.5815 437.984 59.3178C437.984 58.8148 438.11 57.5572 438.235 56.1739C441.872 55.4193 445.132 52.7784 449.271 52.9041C456.168 53.0299 462.94 53.0299 469.837 52.9041C472.847 52.7784 476.108 54.1617 478.867 51.5208C479.243 51.1435 480.497 51.1435 480.999 51.5208C486.015 55.2935 492.411 50.6404 497.552 54.2875C505.328 51.5208 513.354 53.9102 521.129 52.9041C523.888 52.5268 526.647 50.7662 529.28 51.7723C531.538 52.6526 533.67 53.4071 536.052 53.0299C537.933 52.7784 539.689 51.6465 541.445 53.0299C541.696 53.2814 542.573 53.2814 542.824 53.0299C547.59 49.2571 551.477 53.5329 555.992 54.4132C557.371 53.5329 558.876 52.9041 561.008 53.0299C566.15 53.2814 571.292 53.2814 576.433 53.0299C584.585 52.6526 592.736 53.9102 600.888 51.7723C607.66 50.0116 614.557 53.1556 621.956 53.4072C624.589 58.186 623.21 64.3482 626.345 69.0013C625.593 70.7619 625.091 74.0317 625.216 76.2953C626.596 77.1757 627.348 76.2953 628.226 75.415C630.358 73.5286 632.616 71.8938 635.751 72.271C639.387 68.121 644.905 66.1088 648.291 60.5754C648.291 59.1921 648.291 57.0542 648.291 54.7905C648.291 51.6465 648.668 48.5025 646.41 45.9874C645.658 45.2328 645.156 44.4782 645.407 43.4722C646.034 40.0767 643.902 37.1842 643.4 34.0402C642.523 28.5068 638.259 24.231 638.133 18.5718C635.249 16.4339 637.883 12.5354 635.249 10.1459C633.117 8.25956 634.371 4.7383 632.114 3.10343C633.619 -0.795109 636.503 0.0852058 638.635 0.0852058C643.902 3.60647 646.285 9.13988 650.423 13.2899C652.179 15.0506 654.687 15.6794 655.941 18.1945C657.07 20.2067 659.076 21.8416 660.832 23.6022C662.713 25.4886 664.72 27.375 666.475 29.3871C667.604 30.519 668.356 32.1538 669.234 33.2857C671.868 36.6812 673.874 40.5797 677.386 43.2206C679.518 44.8555 680.772 47.1192 682.151 49.3829C685.913 55.5451 689.801 61.4557 694.19 68.3725C694.692 70.2589 692.685 73.6544 695.444 76.2953C695.946 76.7984 695.82 78.6848 695.319 79.062C693.689 80.4454 693.939 82.0803 694.065 83.7151C694.19 86.8591 693.563 89.7516 691.055 92.3925C691.055 95.6623 690.804 98.932 688.798 102.328C687.042 105.346 685.788 109.244 686.666 112.891C685.537 114.023 684.785 114.778 683.781 115.784C683.781 126.725 675.505 132.636 668.356 140.181C666.35 140.558 662.964 139.427 661.334 142.696C661.083 143.074 659.954 142.948 659.453 143.325C656.944 144.96 653.684 145.086 651.176 146.343C648.793 147.601 646.41 149.236 643.777 149.99C640.265 150.996 636.378 150.871 633.87 154.015C632.866 153.134 632.239 152.757 631.988 152.505C630.107 154.266 628.352 156.027 626.345 157.913C625.969 160.931 628.226 162.566 630.484 163.698C639.638 168.477 648.918 172.878 657.195 179.166C657.571 179.418 658.073 180.047 658.324 179.921C662.462 178.789 664.469 182.688 667.604 183.694C667.604 184.951 667.228 185.329 666.224 185.957C658.825 190.108 650.549 192.245 643.651 197.276C637.632 197.527 634.12 203.564 628.101 204.067C627.599 204.067 627.098 205.073 626.471 205.702C628.602 207.211 631.111 205.827 632.866 206.456C638.384 210.606 645.909 209.726 650.674 215.134C653.057 215.134 655.69 215.134 658.073 215.134C659.202 216.265 660.08 217.146 660.832 217.9C663.089 218.655 665.597 217.272 667.855 218.906C671.868 221.925 677.636 221.673 680.772 226.2C676.884 227.584 672.997 228.967 669.234 230.35C663.089 232.614 656.443 233.62 650.674 237.016C648.668 238.148 645.407 236.01 643.275 238.651C639.387 237.896 637.632 242.926 633.995 241.92C633.368 243.932 634.622 244.561 635.374 245.442C642.523 252.61 649.545 259.652 656.694 266.821C658.826 268.959 661.083 271.096 661.835 274.869C658.7 275.624 655.816 277.259 652.681 278.265C651.301 278.768 650.047 279.019 649.044 280.151C648.417 280.906 647.163 281.031 646.661 281.534C644.278 283.798 640.892 282.541 638.133 284.175C635.751 285.685 633.243 287.948 629.857 287.319C627.975 286.942 626.345 288.451 625.593 289.206C623.712 290.966 621.58 291.344 619.448 292.224C614.306 294.236 609.039 296.123 606.656 301.908C606.28 302.788 605.277 303.291 604.65 304.045C595.871 312.849 586.842 321.652 578.189 330.706C576.559 332.467 573.424 332.719 572.922 335.988C551.854 335.988 530.911 335.988 509.842 335.988C501.064 335.988 492.16 335.988 483.381 335.988C481.375 335.988 478.992 335.108 477.236 337.246C476.986 337.623 475.732 337.623 475.105 337.372C467.58 334.353 459.805 336.617 452.155 335.988C450.65 335.863 449.271 335.988 447.766 335.988C446.01 334.102 443.251 332.844 444.004 329.449C441.746 327.94 440.994 325.299 439.614 323.161C438.486 321.4 437.482 319.388 436.981 317.627C435.852 313.855 432.842 312.22 430.083 311.214C427.199 310.208 424.315 309.705 422.057 307.315C421.681 306.938 421.305 306.435 420.929 306.435C418.044 306.686 415.662 306.183 414.031 303.668C410.645 304.171 408.514 301.656 405.629 300.776C404.124 300.273 402.369 299.77 401.24 299.015C396.349 295.117 390.079 293.607 385.062 289.835C389.201 284.804 392.336 279.145 396.851 274.618C396.851 273.737 396.851 272.731 396.851 271.725C400.864 269.587 403.121 266.443 408.514 256.005C408.012 253.364 405.128 253.742 403.623 252.233C399.735 253.364 395.722 254.496 391.709 251.981C387.947 254.622 383.808 252.861 379.921 253.239C375.532 253.49 371.142 253.364 366.753 253.364C362.615 253.364 358.476 253.364 354.212 253.364C349.823 253.364 345.434 253.364 341.546 253.364C340.668 252.484 340.041 251.855 339.414 251.227C339.791 250.723 340.167 250.095 340.668 249.843C345.058 247.831 349.447 246.196 353.711 244.058C356.47 242.549 359.605 243.304 362.238 241.543C364.747 239.908 367.38 238.525 370.014 237.267C371.017 236.764 372.396 237.141 374.277 237.141C375.406 235.758 376.786 233.997 377.789 232.74C379.168 232.74 380.172 232.991 380.673 232.74C388.574 226.703 398.983 225.949 407.134 220.415C404.25 217.02 400.864 214.379 396.851 212.87C393.088 211.487 389.577 209.474 387.696 206.833C378.04 203.815 371.393 197.024 362.865 193.88C363.242 191.114 365.499 190.233 366.753 188.598C367.255 188.598 367.756 188.598 368.258 188.598C368.509 188.598 368.76 188.724 369.01 188.598C378.04 183.191 387.445 178.663 396.474 173.382C398.983 171.872 400.613 169.483 402.87 167.094ZM447.264 291.595C450.776 291.595 454.036 291.847 457.171 291.469C460.683 291.092 463.316 293.356 466.828 293.104C473.349 292.601 480.121 292.476 486.642 293.104C493.163 293.733 499.559 290.212 505.955 292.979C507.71 293.733 509.09 290.338 510.72 292.727C515.736 292.727 520.753 293.859 525.518 291.469C525.894 291.847 526.145 292.35 526.647 292.35C533.67 293.607 540.692 292.476 547.59 292.979C548.468 292.35 548.844 291.218 549.972 291.469C551.352 291.344 551.603 293.482 552.857 292.979C554.362 292.727 554.738 290.966 556.368 291.469C558.751 294.739 562.137 292.601 563.642 291.218C568.407 286.565 575.179 284.427 579.443 278.642C579.318 267.449 573.047 257.389 570.79 247.076C570.037 245.567 569.285 244.058 568.658 242.801C564.269 246.322 563.14 251.478 560.256 255.251C557.246 259.149 556.744 264.809 551.979 267.952C547.715 261.413 543.577 254.999 539.564 248.711C537.432 248.963 535.676 248.334 534.171 249.214C533.293 253.49 528.528 254.874 527.274 258.898C526.898 260.155 525.518 261.161 524.515 262.168C521.63 259.401 520.376 256.005 519.248 252.861C516.489 244.939 514.357 236.764 511.723 228.716C510.72 225.446 509.968 221.799 507.71 218.781C503.572 220.667 504.199 224.566 502.945 227.332C501.565 230.225 500.938 233.369 499.935 236.387C498.932 239.154 498.556 242.423 496.8 244.687C494.668 247.454 496.925 251.855 493.038 253.49C492.285 256.634 491.658 259.778 489.903 262.545C488.272 265.186 489.025 268.959 485.639 270.971C481.626 264.054 476.609 258.018 473.474 250.723C472.346 248.083 470.841 246.573 467.956 245.567C467.58 248.711 466.828 251.478 464.947 253.49C463.316 255.251 462.815 257.64 461.561 259.401C458.802 263.174 458.425 267.952 455.792 271.851C453.284 275.498 451.026 279.522 449.145 283.798C448.142 286.313 446.637 288.2 447.264 291.595ZM596.498 104.34C595.746 104.591 594.743 104.465 594.492 104.843C586.591 114.023 576.433 120.563 567.655 128.737C565.147 131.001 562.513 133.139 560.256 135.779C557.121 139.301 552.355 141.313 548.468 144.205C542.448 148.733 536.679 153.386 531.287 157.662C533.042 159.8 534.673 161.686 535.927 163.195C538.56 163.698 540.818 163.447 543.2 164.327C546.837 165.584 550.725 167.219 554.362 167.471C558.375 167.722 562.137 169.483 566.275 169.231C568.909 169.106 570.79 171.621 573.423 170.741C573.423 173.004 573.925 174.639 573.047 176.274C570.79 176.4 569.41 177.909 568.533 179.418C567.153 181.682 566.275 184.071 563.391 184.448C562.889 187.718 560.13 189.101 558.124 191.114C553.358 196.144 548.468 200.923 543.577 205.702C542.573 206.708 542.072 207.588 543.075 208.72C553.609 201.803 563.642 194.132 576.559 188.85C579.192 185.203 584.585 182.939 589.099 179.669C593.363 176.651 599.132 175.771 602.142 170.741C608.161 170.112 611.547 165.584 615.435 161.937C615.686 161.686 615.811 161.309 615.811 161.434C614.682 159.925 613.554 158.668 612.676 157.536C606.155 158.039 601.765 152.505 595.746 153.134C590.73 149.865 584.836 148.858 579.192 146.595C579.819 145.211 578.816 143.828 580.07 142.948C582.954 140.684 582.578 136.408 585.337 134.145C584.208 130.875 587.72 129.743 588.723 127.479C589.726 125.09 589.225 121.443 592.611 120.185C594.743 115.155 598.505 110.628 596.498 104.34ZM458.3 139.804C456.043 137.792 454.036 135.654 451.653 133.893C446.763 130.372 441.37 127.479 436.855 123.204C434.849 121.317 432.466 119.808 430.334 117.922C429.582 117.293 428.579 117.544 427.575 118.802C429.582 120.563 428.453 124.335 431.087 125.845C434.347 127.605 433.846 131.126 435.476 133.767C437.483 136.911 440.743 139.049 441.997 142.822C443.251 146.595 445.383 149.99 448.518 152.38C447.64 156.656 447.64 156.781 445.383 157.536C444.505 157.787 443.627 157.41 442.624 158.165C439.489 160.931 436.354 164.075 431.588 163.572C431.212 163.572 430.836 164.201 430.585 164.453C427.074 167.471 422.684 168.854 418.546 170.866C418.17 170.992 417.919 171.495 417.668 171.747C417.668 172.753 417.668 173.759 417.668 174.388C423.061 178.286 430.209 178.663 434.473 184.071C442.123 187.089 448.393 192.748 456.168 195.515C463.943 198.282 470.966 202.558 477.989 206.456C480.748 207.965 484.134 208.594 486.391 211.109C487.269 212.115 488.272 212.618 489.652 211.361C487.144 208.846 484.886 205.576 482.002 203.815C471.969 197.905 463.943 189.982 455.792 181.807C454.914 180.927 453.911 180.298 454.538 178.538C458.551 178.915 460.934 173.759 465.448 175.142C468.583 172.501 472.722 172.627 476.233 170.866C479.619 169.106 483.632 168.477 488.021 167.219C489.15 166.087 490.906 164.327 493.038 162.189C490.906 161.309 489.025 160.68 486.767 159.8C482.88 155.398 477.989 151.625 472.596 148.858C468.082 146.595 463.818 144.205 461.184 139.804C460.056 139.804 459.052 139.804 458.3 139.804ZM385.564 133.893C382.554 127.982 383.056 122.072 384.185 117.041C385.439 111.508 385.062 105.975 387.069 101.07C382.303 97.8002 380.548 92.3925 375.281 90.7577C374.403 86.8591 371.895 83.5894 369.387 80.8227C366.502 77.5529 367.255 72.5226 363.116 69.8816C363.116 67.3664 363.116 64.7255 363.116 62.0845C362.113 61.2042 360.734 60.4497 360.483 59.5694C360.106 58.186 360.106 57.3057 357.598 57.5572C358.476 62.3361 353.962 63.8452 351.579 67.1149C351.077 69.0013 352.457 71.5165 350.952 73.1514C348.318 76.1696 348.444 79.6908 348.569 83.2121C348.569 85.2243 346.061 86.2303 347.064 88.494C350.074 95.4108 350.325 103.334 354.714 109.622C355.968 111.382 355.216 113.394 356.47 114.652C359.103 115.029 360.483 116.413 360.357 119.053C360.357 119.808 360.608 120.437 361.235 120.688C362.364 120.94 363.743 120.185 364.747 121.443C364.747 122.323 364.747 123.329 364.747 124.461C366.502 126.096 368.258 127.731 369.637 129.114C374.779 130.749 379.545 133.013 385.564 133.893ZM665.848 99.6866C666.475 98.0517 665.597 96.6683 666.852 95.6623C669.109 93.7759 669.861 91.1349 670.99 88.6198C673.122 83.7151 674.627 78.9363 672.244 73.2771C670.865 70.1331 669.36 67.1149 667.855 64.0967C665.848 60.3239 663.089 56.5511 662.462 52.5268C661.835 48.6283 659.954 45.8616 657.697 42.8434C658.073 45.9874 656.067 49.1313 658.7 52.4011C659.453 53.2814 659.327 55.6708 658.324 57.1799C656.819 59.8209 656.819 62.4618 658.449 65.1028C659.202 66.3604 659.453 67.9952 658.198 69.0013C656.819 70.2589 657.822 71.768 657.321 72.7741C649.796 81.3257 640.767 87.4879 630.484 92.5183C632.866 96.1653 637.256 98.8063 636.879 103.837C641.143 106.855 639.638 113.269 643.902 115.406C644.529 117.67 642.146 117.796 642.773 119.557C643.4 120.814 644.153 122.323 645.909 122.197C649.42 120.437 650.298 116.79 653.308 114.778C656.067 112.891 658.951 110.753 660.205 107.609C661.459 104.088 663.842 101.699 665.848 99.6866Z" fill="#FF64A5"/>
<path d="M818.344 515.573C816.087 513.938 814.707 511.171 811.697 510.542C811.697 509.536 811.697 508.656 811.697 507.65C810.067 505.763 807.308 506.015 805.552 503.877C804.173 502.116 802.919 498.972 801.038 498.721C798.153 498.469 799.031 494.948 796.022 494.696C793.639 494.445 794.015 490.043 791.131 489.037C793.137 484.51 794.767 480.234 795.645 475.455C796.398 471.054 799.533 467.281 800.411 461.496C801.038 461.119 802.668 460.113 805.302 458.352C804.925 458.352 806.054 458.352 807.935 458.352C810.067 462.502 816.463 462.754 817.842 468.539C818.971 468.664 820.1 468.664 821.228 468.79C822.859 473.317 827.122 475.707 830.007 479.102C832.891 482.498 838.033 483.504 839.412 488.283C843.425 490.421 846.184 494.193 849.445 497.212C849.194 500.607 849.194 500.607 846.059 504.003C844.805 504.003 843.3 504.003 842.171 504.003C841.67 504.254 841.419 504.254 841.293 504.38C838.033 508.907 832.515 509.285 828.251 511.8C825.618 513.309 822.482 511.674 820.35 514.315C820.225 514.566 819.096 514.944 818.344 515.573Z" fill="#FF64A5"/>
<path d="M780.721 517.962C782.101 516.579 782.853 515.824 783.857 514.818C783.731 511.674 783.731 508.153 786.114 505.26C787.117 505.26 788.12 505.26 789.249 505.26C788.371 508.279 792.259 507.65 792.76 510.165C793.262 512.932 797.275 512.429 798.655 514.944C799.909 517.207 802.918 516.956 804.298 519.094C803.044 522.741 799.282 523.244 796.523 523.998C791.632 525.382 787.243 527.394 783.104 530.161C781.85 528.903 780.721 527.771 779.467 526.639C778.84 523.495 781.976 521.106 780.721 517.962Z" fill="#FF64A5"/>
</svg>
