<svg width="325" height="67" viewBox="0 0 325 67" fill="none" xmlns="http://www.w3.org/2000/svg">
<path d="M325 21.3218V8.33966H302.847C300.966 8.33966 299.405 8.46529 298.16 8.71656C296.915 8.96783 295.894 9.38361 295.102 9.95794C294.31 10.5353 293.725 11.316 293.353 12.3001C292.978 13.2842 292.794 14.5316 292.794 16.0422C292.794 17.5498 292.943 18.8181 293.237 19.8471C293.531 20.8731 293.996 21.7017 294.63 22.3298C295.264 22.958 296.107 23.4187 297.161 23.7148C298.215 24.0109 299.534 24.1545 301.118 24.1545V24.2801L292.994 33.0505H302.236L315.522 19.5958H303.562C302.724 19.5958 301.987 19.3745 301.354 18.9347C300.72 18.495 300.403 17.8549 300.403 17.0173C300.403 16.2845 300.711 15.6832 301.321 15.2106C301.932 14.738 302.647 14.5047 303.461 14.5047H316.676V33.0535H325" fill="black"/>
<path d="M26.1257 17.2387H8.32388V8.33966H0V23.8404H26.1257V33.0505H34.4496V8.33966H26.1257V17.2387Z" fill="black"/>
<path d="M37.7112 8.33966H37.3718V33.0505H37.9505H46.1709H66.659V27.2983H45.6957V23.2123H65.3659V18.2138H45.6957V14.062H66.659V8.33966H46.1709H37.7112Z" fill="black"/>
<path d="M98.6453 22.943C99.9254 21.4654 100.565 19.1651 100.565 16.0422C100.565 14.5316 100.372 13.2872 99.9868 12.3001C99.6022 11.316 99.0074 10.5353 98.2025 9.95794C97.3975 9.38062 96.3728 8.96783 95.1283 8.71656C93.8837 8.46529 92.3321 8.33966 90.4734 8.33966H69.0349V33.0505H77.3588V14.5346H89.759C90.5509 14.5346 91.2653 14.7769 91.8989 15.2585C92.5325 15.7401 92.8719 16.3264 92.9172 17.0203C92.9172 17.8788 92.5875 18.5459 91.9313 19.0185C91.275 19.4911 90.5154 19.7244 89.6555 19.7244H78.5128L85.0685 25.1626H92.1026C95.1865 25.1596 97.3652 24.4207 98.6453 22.943Z" fill="black"/>
<path d="M114.427 33.0505H122.751V14.062H134.097V8.33966V0L126.381 8.33966H110.421L102.705 0V8.33966V14.062H114.427V33.0505Z" fill="black"/>
<path d="M166.374 14.5017L166.474 14.2833V32.9578H174.323V8.33966H160.733L144.7 26.6702L144.561 26.9842V8.33966H136.715V32.9578H150.202L166.374 14.5017Z" fill="black"/>
<path d="M197.087 14.4389L207.754 32.9578H216.996L202.353 8.33966H191.721L177.177 32.9578H186.419L197.087 14.4389Z" fill="black"/>
<path d="M244.991 32.6736C246.235 32.4224 247.26 32.0096 248.065 31.4323C248.87 30.8549 249.464 30.0742 249.849 29.0901C250.234 28.106 250.428 26.8586 250.428 25.348C250.428 22.2251 249.788 19.9248 248.508 18.4472C247.228 16.9695 245.049 16.2306 241.968 16.2306H228.243L234.902 21.6688H239.521C240.381 21.6688 241.141 21.9051 241.797 22.3747C242.453 22.8473 242.783 23.5114 242.783 24.3699C242.737 25.0609 242.398 25.6471 241.764 26.1317C241.131 26.6133 240.416 26.8556 239.625 26.8556H227.292L227.325 8.33966H218.897V33.0505H240.336C242.194 33.0505 243.746 32.9249 244.991 32.6736Z" fill="black"/>
<path d="M261.163 23.8404H278.965V33.0505H287.289V8.33966H278.965V17.2387H261.163V8.33966H252.839V33.0505H261.163V23.8404Z" fill="black"/>
<path d="M115.71 54.9843L113.767 51.7508C113.767 51.7508 112.474 50.5513 110.532 50.5513C108.46 50.5513 107.037 51.7508 107.037 53.1866C107.037 54.4818 108.227 55.3194 109.756 55.9415L112.992 57.2577C114.65 57.9277 116.615 58.8162 116.615 61.4485C116.615 64.4427 113.897 66.1208 110.532 66.1208C108.072 66.1208 106.779 65.041 106.779 65.041L105.224 66.1208V60.252L107.296 64.2034C107.296 64.2034 108.33 65.3999 110.532 65.3999C112.733 65.3999 114.285 64.2034 114.285 62.286C114.285 60.3686 112.523 59.8661 111.437 59.4114L108.201 58.0953C106.362 57.3534 104.965 56.1539 104.965 54.1438C104.965 51.1495 107.554 49.8334 110.532 49.8334C112.733 49.8334 114.155 50.9102 114.155 50.9102L115.707 49.8334V54.9843H115.71Z" fill="black"/>
<path d="M123.087 51.5115V64.4487L125.676 65.7649H118.041L120.63 64.4487V51.5115L118.041 50.1953H125.676L123.087 51.5115Z" fill="black"/>
<path d="M141.079 61.6937V51.5115L138.231 50.1953H144.832L142.243 51.5115V66.1238L130.205 53.9793V64.4487L133.053 65.7649H126.452L129.041 64.4487V52.8067L126.452 50.1953H129.688L141.079 61.6937Z" fill="black"/>
<path d="M156.871 54.9843L154.928 51.7508C154.928 51.7508 153.635 50.5513 151.692 50.5513C149.62 50.5513 148.198 51.7508 148.198 53.1866C148.198 54.4818 149.387 55.3194 150.916 55.9415L154.152 57.2577C155.81 57.9277 157.776 58.8162 157.776 61.4485C157.776 64.4427 155.057 66.1208 151.692 66.1208C149.232 66.1208 147.939 65.041 147.939 65.041L146.384 66.1208V60.252L148.456 64.2034C148.456 64.2034 149.491 65.3999 151.692 65.3999C153.893 65.3999 155.445 64.2034 155.445 62.286C155.445 60.3686 153.683 59.8661 152.597 59.4114L149.361 58.0953C147.522 57.3534 146.125 56.1539 146.125 54.1438C146.125 51.1495 148.715 49.8334 151.692 49.8334C153.893 49.8334 155.316 50.9102 155.316 50.9102L156.867 49.8334V54.9843H156.871Z" fill="black"/>
<path d="M164.247 57.2607H167.483L169.297 54.745V60.6139L167.483 58.0982H164.247V64.4457L165.152 64.9243H170.719L173.05 60.7336V65.7649H159.198L161.787 64.4487V51.5115L159.198 50.1953H172.658V55.2266L170.328 51.0329H165.149L164.244 51.5115V57.2607H164.247Z" fill="black"/>
<path d="M188.711 55.9415C191.171 55.9415 193.631 57.6196 193.631 60.8532C193.631 64.0868 191.042 66.1238 187.936 66.1238C184.57 66.1238 182.24 63.6082 182.24 59.4174C182.24 50.315 193.218 48.6847 193.476 48.6369C193.088 48.7565 185.631 50.8414 184.674 57.9786C185.424 56.9257 186.691 55.9415 188.711 55.9415ZM188.323 65.4059C190.008 65.4059 191.301 64.0898 191.301 61.4544C191.301 58.9866 190.008 57.0244 187.677 57.0244C186.226 57.0244 185.243 57.7423 184.596 58.532C184.57 58.867 184.57 59.202 184.57 59.537C184.57 63.6082 186.51 65.4059 188.323 65.4059Z" fill="black"/>
<path d="M201.913 55.9415C204.373 55.9415 206.833 57.6196 206.833 60.8532C206.833 64.0868 204.244 66.1238 201.137 66.1238C197.772 66.1238 195.442 63.6082 195.442 59.4174C195.442 50.315 206.419 48.6847 206.678 48.6369C206.29 48.7565 198.833 50.8414 197.876 57.9786C198.626 56.9257 199.896 55.9415 201.913 55.9415ZM201.525 65.4059C203.21 65.4059 204.503 64.0898 204.503 61.4544C204.503 58.9866 203.21 57.0244 200.879 57.0244C199.427 57.0244 198.445 57.7423 197.798 58.532C197.772 58.867 197.772 59.202 197.772 59.537C197.772 63.6082 199.712 65.4059 201.525 65.4059Z" fill="black"/>
<path d="M215.115 55.9415C217.575 55.9415 220.035 57.6196 220.035 60.8532C220.035 64.0868 217.446 66.1238 214.339 66.1238C210.974 66.1238 208.644 63.6082 208.644 59.4174C208.644 50.315 219.618 48.6847 219.88 48.6369C219.492 48.7565 212.035 50.8414 211.078 57.9786C211.828 56.9257 213.098 55.9415 215.115 55.9415ZM214.727 65.4059C216.411 65.4059 217.704 64.0898 217.704 61.4544C217.704 58.9866 216.411 57.0244 214.081 57.0244C212.629 57.0244 211.647 57.7423 211 58.532C210.974 58.867 210.974 59.202 210.974 59.537C210.974 63.6082 212.914 65.4059 214.727 65.4059Z" fill="black"/>
</svg>
