<svg width="55" height="55" viewBox="0 0 55 55" fill="none" xmlns="http://www.w3.org/2000/svg">
<rect width="55" height="55" rx="20" fill="black"/>
<path d="M38.8761 46.3571H15.3385C12.0859 46.3571 9.42871 43.6999 9.42871 40.4473V16.9098C9.42871 13.6572 12.0859 11 15.3385 11H38.8761C42.1286 11 44.7859 13.6572 44.7859 16.9098V40.4473C44.7859 43.7144 42.1431 46.3571 38.8761 46.3571Z" fill="#FF64A5"/>
<path d="M27.107 37.7143C24.6927 37.7143 22.4229 36.7745 20.7169 35.0686C19.011 33.3627 18.0713 31.0929 18.0713 28.6785C18.0713 26.2642 19.011 23.9944 20.7169 22.2885C22.4229 20.5825 24.6927 19.6428 27.107 19.6428C29.5213 19.6428 31.7911 20.5825 33.4971 22.2885C35.203 23.9944 36.1427 26.2642 36.1427 28.6785C36.1427 31.0929 35.203 33.3627 33.4971 35.0686C31.7767 36.7745 29.5213 37.7143 27.107 37.7143ZM27.107 21.5656C23.1891 21.5656 19.9941 24.7462 19.9941 28.6785C19.9941 32.5964 23.1747 35.7915 27.107 35.7915C31.0249 35.7915 34.2199 32.6109 34.2199 28.6785C34.2055 24.7607 31.0249 21.5656 27.107 21.5656Z" fill="black"/>
<path d="M38.1069 19.6429C39.1917 19.6429 40.0711 18.7635 40.0711 17.6786C40.0711 16.5938 39.1917 15.7144 38.1069 15.7144C37.022 15.7144 36.1426 16.5938 36.1426 17.6786C36.1426 18.7635 37.022 19.6429 38.1069 19.6429Z" fill="black"/>
</svg>
