<svg width="56" height="55" viewBox="0 0 56 55" fill="none" xmlns="http://www.w3.org/2000/svg">
<rect x="0.69043" width="55" height="55" rx="20" fill="black"/>
<path d="M44.0922 21.1724C43.1986 19.1872 41.9158 17.4049 40.287 15.8689C38.6583 14.3473 36.7701 13.1446 34.6657 12.3042C32.4892 11.4347 30.183 11 27.8048 11C25.4265 11 23.1203 11.4347 20.9438 12.3042C18.8394 13.1446 16.9512 14.3328 15.3225 15.8689C13.6937 17.4049 12.4109 19.1872 11.5173 21.1724C10.5948 23.2301 10.1191 25.4327 10.1191 27.6932C10.1191 31.6491 11.5893 35.4457 14.2847 38.4597L12.8433 46.3571L20.5114 42.9229C22.8032 43.9082 25.2391 44.4009 27.7903 44.4009C30.1686 44.4009 32.4748 43.9662 34.6513 43.0967C36.7557 42.2563 38.6439 41.0681 40.2726 39.5321C41.9014 37.996 43.1842 36.2137 44.0778 34.2285C45.0003 32.1708 45.476 29.9682 45.476 27.7077C45.4904 25.4327 45.0147 23.2446 44.0922 21.1724Z" fill="#FF64A5"/>
<path d="M34.8876 31.053C34.1242 30.6847 33.5665 30.4581 33.1701 30.3165C32.9206 30.2315 32.3334 29.9765 32.1279 30.1323C31.482 30.6423 30.7921 32.0871 30.0581 32.3562C28.2379 32.0162 26.5498 30.8122 25.2287 29.5799C24.6416 29.0416 23.5553 27.5119 23.3204 27.1011C23.2764 26.6761 24.069 26.1096 24.2452 25.7838C25.1553 24.7922 24.4654 24.169 24.348 23.7582C24.1425 23.3333 23.7902 22.5684 23.4819 21.9451C23.2177 21.5344 23.1589 20.9253 22.6892 20.6986C20.6928 19.7071 19.5479 21.6902 19.0782 22.7242C16.2451 29.3108 33.2729 41.8465 36.7371 33.2061C36.9133 32.4553 36.8399 32.172 36.5757 31.8321C36.0472 31.478 35.4307 31.3222 34.8876 31.053Z" fill="black"/>
</svg>
